<?xml version="1.0" encoding="UTF-8" standalone="no"?>
<!-- Created with Inkscape (http://www.inkscape.org/) -->

<svg
        xmlns:inkscape="http://www.inkscape.org/namespaces/inkscape"
        xmlns:sodipodi="http://sodipodi.sourceforge.net/DTD/sodipodi-0.dtd"
        xmlns:svg="http://www.w3.org/2000/svg"
        version="1.1"
        id="svg1"
        width="2000"
        height="2000"
        viewBox="0 0 2000 2000"
        sodipodi:docname="logo.svg"
        inkscape:version="1.4.2 (f4327f4, 2025-05-13)"
        xmlns="http://www.w3.org/2000/svg">
    <defs
            id="defs1">
        <clipPath
                clipPathUnits="userSpaceOnUse"
                id="clipPath1">
            <path
                    d="M 0,1500 H 1500 V 0 H 0 Z"
                    id="path1"/>
        </clipPath>
        <clipPath
                clipPathUnits="userSpaceOnUse"
                id="clipPath3">
            <path
                    d="M 0,0 H 1500 V 1500 H 0 Z"
                    transform="matrix(1.3333333,0,0,-1.3333333,0,2000)"
                    id="path3"/>
        </clipPath>
        <clipPath
                clipPathUnits="userSpaceOnUse"
                id="clipPath4">
            <path
                    d="M 162.861,1482.87 H 1561.64 V 291.538 H 162.861 Z"
                    transform="translate(-1227.7596,-574.95099)"
                    id="path4"/>
        </clipPath>
        <clipPath
                clipPathUnits="userSpaceOnUse"
                id="clipPath6">
            <path
                    d="M 0,0 H 1500 V 1500 H 0 Z"
                    transform="matrix(1.3333333,0,0,-1.3333333,0,2000)"
                    id="path6"/>
        </clipPath>
        <clipPath
                clipPathUnits="userSpaceOnUse"
                id="clipPath7">
            <path
                    d="M 57.6551,1352.2 H 1456.43 V 160.865 H 57.6551 Z"
                    transform="translate(-1122.5541,-444.27759)"
                    id="path7"/>
        </clipPath>
        <clipPath
                clipPathUnits="userSpaceOnUse"
                id="clipPath9">
            <path
                    d="M 0,0 H 1500 V 1500 H 0 Z"
                    transform="matrix(1.3333333,0,0,-1.3333333,0,2000)"
                    id="path9"/>
        </clipPath>
        <clipPath
                clipPathUnits="userSpaceOnUse"
                id="clipPath10">
            <path
                    d="M -61.6302,1208.46 H 1337.15 V 17.1253 H -61.6302 Z"
                    transform="translate(-1003.2687,-300.53828)"
                    id="path10"/>
        </clipPath>
        <clipPath
                clipPathUnits="userSpaceOnUse"
                id="clipPath12">
            <path
                    d="M 0,0 H 1500 V 1500 H 0 Z"
                    transform="matrix(1.3333333,0,0,-1.3333333,0,2000)"
                    id="path12"/>
        </clipPath>
    </defs>
    <sodipodi:namedview
            id="namedview1"
            pagecolor="#ffffff"
            bordercolor="#000000"
            borderopacity="0.25"
            inkscape:showpageshadow="2"
            inkscape:pageopacity="0.0"
            inkscape:pagecheckerboard="0"
            inkscape:deskcolor="#d1d1d1"
            inkscape:zoom="0.9075"
            inkscape:cx="999.44904"
            inkscape:cy="1000"
            inkscape:window-width="3840"
            inkscape:window-height="2054"
            inkscape:window-x="3373"
            inkscape:window-y="199"
            inkscape:window-maximized="1"
            inkscape:current-layer="g1">
        <inkscape:page
                x="0"
                y="0"
                inkscape:label="1"
                id="page1"
                width="2000"
                height="2000"
                margin="0"
                bleed="0"/>
    </sodipodi:namedview>
    <g
            id="g1"
            inkscape:groupmode="layer"
            inkscape:label="1">
        <g
                id="g2"
                clip-path="url(#clipPath3)">
            <path
                    d="M 0,0 H 1500 V 1500 H 0 Z"
                    style="fill:#9ed8f7;fill-opacity:0;fill-rule:nonzero;stroke:none"
                    transform="matrix(1.3333333,0,0,-1.3333333,0,2000)"
                    clip-path="url(#clipPath1)"
                    id="path2"/>
        </g>
        <g
                opacity="0.720001"
                id="g5"
                clip-path="url(#clipPath6)">
            <path
                    d="m 0,0 -662.988,-241.307 c -68.294,-24.856 -140.454,25.942 -140.088,98.618 l 3.371,669.629 c 0.22,43.692 27.626,82.623 68.683,97.567 L -68.034,865.813 C 0.26,890.67 72.42,839.872 72.054,767.196 L 68.683,97.566 C 68.463,53.876 41.057,14.943 0,0"
                    style="fill:#2842fc;fill-opacity:1;fill-rule:nonzero;stroke:none"
                    transform="matrix(1.3333333,0,0,-1.3333333,1637.0128,1233.3987)"
                    clip-path="url(#clipPath4)"
                    id="path5"/>
        </g>
        <g
                opacity="0.720001"
                id="g8"
                clip-path="url(#clipPath9)">
            <path
                    d="m 0,0 -662.988,-241.307 c -68.293,-24.856 -140.454,25.942 -140.088,98.618 l 3.371,669.629 c 0.22,43.692 27.626,82.623 68.683,97.567 L -68.034,865.813 C 0.26,890.67 72.42,839.872 72.054,767.196 L 68.683,97.566 C 68.463,53.876 41.057,14.943 0,0"
                    style="fill:#ff5e00;fill-opacity:1;fill-rule:nonzero;stroke:none"
                    transform="matrix(1.3333333,0,0,-1.3333333,1496.7387,1407.6299)"
                    clip-path="url(#clipPath7)"
                    id="path8"/>
        </g>
        <g
                opacity="0.75"
                id="g11"
                clip-path="url(#clipPath12)">
            <path
                    d="m 0,0 -662.988,-241.307 c -68.294,-24.856 -140.454,25.942 -140.088,98.618 l 3.371,669.629 c 0.22,43.692 27.626,82.623 68.683,97.567 L -68.034,865.814 C 0.26,890.67 72.42,839.872 72.054,767.196 L 68.683,97.566 C 68.463,53.876 41.057,14.943 0,0"
                    style="fill:#f20a4c;fill-opacity:1;fill-rule:nonzero;stroke:none"
                    transform="matrix(1.3333333,0,0,-1.3333333,1337.6916,1599.2823)"
                    clip-path="url(#clipPath10)"
                    id="path11"/>
        </g>
    </g>
</svg>
